<svg width="198" height="198" viewBox="0 0 198 198" fill="none" xmlns="http://www.w3.org/2000/svg">
<path d="M55.46 0L197.37 55.46L141.91 197.37L-1.66413e-05 141.91L55.46 0Z" fill="#FBBB00"/>
<path d="M122.935 94.2997C126.888 95.7235 129.949 97.7973 132.117 100.521C134.286 103.245 135.37 106.526 135.37 110.364C135.37 116.059 132.946 120.485 128.1 123.643C123.254 126.738 116.239 128.285 107.057 128.285H69.3696V63.2854H105.143C114.071 63.2854 120.799 64.833 125.326 67.9283C129.917 71.0235 132.213 75.1402 132.213 80.2783C132.213 83.3116 131.416 86.0354 129.822 88.4497C128.291 90.864 125.996 92.814 122.935 94.2997ZM91.5609 78.6068V88.264H102.083C106.993 88.264 109.448 86.6544 109.448 83.4354C109.448 80.2164 106.993 78.6068 102.083 78.6068H91.5609ZM105.143 112.964C110.117 112.964 112.604 111.262 112.604 107.857C112.604 104.452 110.117 102.75 105.143 102.75H91.5609V112.964H105.143Z" fill="#245D5D"/>
</svg>
