<svg width="17" height="17" viewBox="0 0 17 17" fill="none" xmlns="http://www.w3.org/2000/svg">
<path d="M15.2204 12.6398C14.9262 12.4209 14.5102 12.482 14.2913 12.7762C14.1709 12.9381 14.0421 13.0968 13.9084 13.2481C13.6655 13.5228 13.6913 13.9425 13.966 14.1854C14.0924 14.2971 14.2493 14.352 14.4056 14.352C14.5893 14.352 14.7722 14.2762 14.9034 14.1277C15.0617 13.9486 15.2143 13.7606 15.3569 13.5689C15.5758 13.2747 15.5147 12.8587 15.2204 12.6398Z" fill="#489F9F"/>
<path d="M16.3311 9.52551C15.9729 9.44752 15.619 9.67479 15.541 10.0331C15.498 10.2302 15.4462 10.4277 15.3867 10.6202C15.2784 10.9706 15.4747 11.3424 15.8251 11.4507C15.8904 11.4708 15.9564 11.4804 16.0214 11.4804C16.3049 11.4804 16.5675 11.2974 16.6556 11.0122C16.7262 10.7838 16.7878 10.5495 16.8387 10.3156C16.9167 9.95729 16.6894 9.60354 16.3311 9.52551Z" fill="#489F9F"/>
<path d="M12.0241 14.7666C11.8478 14.865 11.6652 14.9569 11.4816 15.0399C11.1473 15.1909 10.9987 15.5842 11.1497 15.9184C11.2606 16.164 11.5022 16.3093 11.7552 16.3093C11.8466 16.3093 11.9395 16.2904 12.0282 16.2503C12.2461 16.1519 12.4625 16.0429 12.6716 15.9261C12.9918 15.7474 13.1064 15.3428 12.9276 15.0226C12.7489 14.7024 12.3443 14.5878 12.0241 14.7666Z" fill="#489F9F"/>
<path d="M7.83593 3.1875V8.22495L5.40085 10.66C5.14153 10.9193 5.14153 11.3398 5.40085 11.5991C5.53054 11.7288 5.70044 11.7936 5.87044 11.7936C6.04037 11.7936 6.21034 11.7288 6.34003 11.5991L8.96959 8.96956C9.0941 8.84505 9.16406 8.67611 9.16406 8.5V3.1875C9.16406 2.82074 8.86676 2.52344 8.49999 2.52344C8.13323 2.52344 7.83593 2.82074 7.83593 3.1875Z" fill="#489F9F"/>
<path d="M16.3359 1.42773C15.9692 1.42773 15.6719 1.72504 15.6719 2.0918V3.93577C14.1262 1.51167 11.4269 0 8.5 0C6.22957 0 4.09504 0.884166 2.48957 2.48957C0.884166 4.09504 0 6.22957 0 8.5C0 10.7704 0.884166 12.905 2.48957 14.5104C4.09504 16.1158 6.22957 17 8.5 17C8.50561 17 8.51102 16.9993 8.5166 16.9992C8.52218 16.9993 8.52759 17 8.5332 17C8.77253 17 9.01422 16.9899 9.25162 16.9701C9.61709 16.9394 9.88855 16.6184 9.85797 16.2529C9.82733 15.8874 9.50669 15.6158 9.14079 15.6466C8.94011 15.6633 8.73571 15.6719 8.5332 15.6719C8.52759 15.6719 8.52218 15.6726 8.5166 15.6727C8.51102 15.6726 8.50561 15.6719 8.5 15.6719C4.54541 15.6719 1.32812 12.4546 1.32812 8.5C1.32812 4.54541 4.54541 1.32812 8.5 1.32812C11.0486 1.32812 13.3927 2.68656 14.6737 4.84766H12.8477C12.481 4.84766 12.1837 5.14496 12.1837 5.51172C12.1837 5.87848 12.481 6.17578 12.8477 6.17578H14.875C15.2794 6.17578 15.6578 6.06213 15.9799 5.86523C16.0006 5.85341 16.0205 5.8407 16.0395 5.82698C16.6175 5.44677 17 4.79277 17 4.05078V2.0918C17 1.72504 16.7027 1.42773 16.3359 1.42773Z" fill="#489F9F"/>
</svg>
