<svg width="190" height="127" viewBox="0 0 190 127" fill="none" xmlns="http://www.w3.org/2000/svg">
<path d="M154.375 55.4167C134.702 55.4167 118.75 71.3687 118.75 91.0417C118.75 110.715 134.702 126.667 154.375 126.667C174.048 126.667 190 110.715 190 91.0417C190 71.3687 174.048 55.4167 154.375 55.4167ZM150.662 106.748L137.299 93.7887L142.809 88.2708L150.654 95.7125L167.406 78.5412L172.916 84.0512L150.662 106.748ZM31.6667 87.0833H71.25V95H31.6667V87.0833ZM95 79.1667H31.6667V71.25H95V79.1667ZM106.891 110.833H19.7917C17.6067 110.833 15.8333 109.06 15.8333 106.875V55.4167H117.325C126.698 45.6792 139.824 39.5833 154.375 39.5833C161.389 39.5833 168.063 41.0004 174.167 43.5496V15.8333C174.167 7.09333 167.073 0 158.333 0H15.8333C7.09333 0 0 7.09333 0 15.8333V110.833C0 119.573 7.09333 126.667 15.8333 126.667H117.325C112.947 122.107 109.361 116.763 106.891 110.833ZM15.8333 19.7917C15.8333 17.6067 17.6067 15.8333 19.7917 15.8333H154.375C156.56 15.8333 158.333 17.6067 158.333 19.7917V31.6667H15.8333V19.7917Z" fill="#489F9F"/>
</svg>
