<svg width="180" height="93" viewBox="0 0 180 93" fill="none" xmlns="http://www.w3.org/2000/svg">
<path d="M42.6334 4.20312V12.9043C42.6276 14.1113 42.2467 15.0986 41.4908 15.8662C40.7408 16.6338 39.7213 17.0645 38.4323 17.1582L37.984 17.1758C36.5836 17.1758 35.4674 16.7979 34.6354 16.042C33.8033 15.2861 33.3815 14.2461 33.3698 12.9219V4.20312H35.0397V12.8691C35.0397 13.7949 35.2946 14.5156 35.8043 15.0312C36.3141 15.541 37.0406 15.7959 37.984 15.7959C38.9391 15.7959 39.6686 15.541 40.1725 15.0312C40.6823 14.5215 40.9371 13.8037 40.9371 12.8779V4.20312H42.6334ZM46.5797 7.49023L46.6324 8.68555C47.359 7.77148 48.3082 7.31445 49.4801 7.31445C51.4899 7.31445 52.5035 8.44824 52.5211 10.7158V17H50.8951V10.707C50.8893 10.0215 50.7311 9.51465 50.4205 9.18652C50.1158 8.8584 49.6383 8.69434 48.9879 8.69434C48.4606 8.69434 47.9977 8.83496 47.5992 9.11621C47.2008 9.39746 46.8903 9.7666 46.6676 10.2236V17H45.0416V7.49023H46.5797ZM56.7399 17H55.1139V3.5H56.7399V17ZM61.1168 17H59.4908V7.49023H61.1168V17ZM59.359 4.96777C59.359 4.7041 59.4381 4.48145 59.5963 4.2998C59.7604 4.11816 60.0006 4.02734 60.317 4.02734C60.6334 4.02734 60.8737 4.11816 61.0377 4.2998C61.2018 4.48145 61.2838 4.7041 61.2838 4.96777C61.2838 5.23145 61.2018 5.45117 61.0377 5.62695C60.8737 5.80273 60.6334 5.89062 60.317 5.89062C60.0006 5.89062 59.7604 5.80273 59.5963 5.62695C59.4381 5.45117 59.359 5.23145 59.359 4.96777ZM65.2565 7.49023L65.3004 8.54492C65.9977 7.72461 66.9381 7.31445 68.1217 7.31445C69.4518 7.31445 70.3571 7.82422 70.8375 8.84375C71.1539 8.38672 71.5641 8.01758 72.068 7.73633C72.5778 7.45508 73.1783 7.31445 73.8698 7.31445C75.9557 7.31445 77.0162 8.41895 77.0514 10.6279V17H75.4254V10.7246C75.4254 10.0449 75.2701 9.53809 74.9596 9.2041C74.649 8.86426 74.1276 8.69434 73.3951 8.69434C72.7916 8.69434 72.2906 8.87598 71.8922 9.23926C71.4938 9.59668 71.2623 10.0801 71.1979 10.6895V17H69.5631V10.7686C69.5631 9.38574 68.8864 8.69434 67.5328 8.69434C66.4664 8.69434 65.7369 9.14844 65.3444 10.0566V17H63.7184V7.49023H65.2565ZM81.2789 17H79.653V7.49023H81.2789V17ZM79.5211 4.96777C79.5211 4.7041 79.6002 4.48145 79.7584 4.2998C79.9225 4.11816 80.1627 4.02734 80.4791 4.02734C80.7955 4.02734 81.0358 4.11816 81.1998 4.2998C81.3639 4.48145 81.4459 4.7041 81.4459 4.96777C81.4459 5.23145 81.3639 5.45117 81.1998 5.62695C81.0358 5.80273 80.7955 5.89062 80.4791 5.89062C80.1627 5.89062 79.9225 5.80273 79.7584 5.62695C79.6002 5.45117 79.5211 5.23145 79.5211 4.96777ZM86.0953 5.1875V7.49023H87.8707V8.74707H86.0953V14.6445C86.0953 15.0254 86.1744 15.3125 86.3326 15.5059C86.4908 15.6934 86.7604 15.7871 87.1412 15.7871C87.3287 15.7871 87.5865 15.752 87.9147 15.6816V17C87.4869 17.1172 87.0709 17.1758 86.6666 17.1758C85.9401 17.1758 85.3922 16.9561 85.0231 16.5166C84.6539 16.0771 84.4694 15.4531 84.4694 14.6445V8.74707H82.7379V7.49023H84.4694V5.1875H86.0953ZM93.7242 17.1758C92.4352 17.1758 91.3864 16.7539 90.5778 15.9102C89.7692 15.0605 89.3649 13.9268 89.3649 12.5088V12.21C89.3649 11.2666 89.5436 10.4258 89.901 9.6875C90.2643 8.94336 90.7682 8.36328 91.4127 7.94727C92.0631 7.52539 92.7662 7.31445 93.5221 7.31445C94.7584 7.31445 95.7194 7.72168 96.4049 8.53613C97.0905 9.35059 97.4332 10.5166 97.4332 12.0342V12.7109H90.9908C91.0143 13.6484 91.2867 14.4072 91.8082 14.9873C92.3356 15.5615 93.0035 15.8486 93.8121 15.8486C94.3864 15.8486 94.8727 15.7314 95.2711 15.4971C95.6696 15.2627 96.0182 14.9521 96.317 14.5654L97.3102 15.3389C96.5133 16.5635 95.318 17.1758 93.7242 17.1758ZM93.5221 8.65039C92.8658 8.65039 92.3151 8.89062 91.8698 9.37109C91.4244 9.8457 91.149 10.5137 91.0436 11.375H95.8073V11.252C95.7604 10.4258 95.5377 9.78711 95.1393 9.33594C94.7408 8.87891 94.2018 8.65039 93.5221 8.65039ZM98.9274 12.166C98.9274 10.707 99.2731 9.53516 99.9645 8.65039C100.656 7.75977 101.561 7.31445 102.68 7.31445C103.794 7.31445 104.675 7.69531 105.326 8.45703V3.5H106.952V17H105.458L105.379 15.9805C104.728 16.7773 103.823 17.1758 102.663 17.1758C101.561 17.1758 100.662 16.7246 99.9645 15.8223C99.2731 14.9199 98.9274 13.7422 98.9274 12.2891V12.166ZM100.553 12.3506C100.553 13.4287 100.776 14.2725 101.221 14.8818C101.667 15.4912 102.282 15.7959 103.067 15.7959C104.098 15.7959 104.851 15.333 105.326 14.4072V10.0391C104.839 9.14258 104.092 8.69434 103.085 8.69434C102.288 8.69434 101.667 9.00195 101.221 9.61719C100.776 10.2324 100.553 11.1436 100.553 12.3506ZM116.013 17H114.326V4.20312H116.013V17ZM120.39 7.49023L120.443 8.68555C121.17 7.77148 122.119 7.31445 123.291 7.31445C125.3 7.31445 126.314 8.44824 126.332 10.7158V17H124.706V10.707C124.7 10.0215 124.542 9.51465 124.231 9.18652C123.926 8.8584 123.449 8.69434 122.798 8.69434C122.271 8.69434 121.808 8.83496 121.41 9.11621C121.011 9.39746 120.701 9.7666 120.478 10.2236V17H118.852V7.49023H120.39ZM131.922 14.7939L134.277 7.49023H135.938L132.528 17H131.289L127.843 7.49023H129.505L131.922 14.7939ZM136.931 12.1572C136.931 11.2256 137.113 10.3877 137.476 9.64355C137.845 8.89941 138.355 8.3252 139.005 7.9209C139.662 7.5166 140.409 7.31445 141.247 7.31445C142.542 7.31445 143.588 7.7627 144.384 8.65918C145.187 9.55566 145.589 10.748 145.589 12.2363V12.3506C145.589 13.2764 145.41 14.1084 145.052 14.8467C144.701 15.5791 144.194 16.1504 143.532 16.5605C142.876 16.9707 142.12 17.1758 141.264 17.1758C139.975 17.1758 138.929 16.7275 138.127 15.8311C137.33 14.9346 136.931 13.748 136.931 12.2715V12.1572ZM138.566 12.3506C138.566 13.4053 138.809 14.252 139.296 14.8906C139.788 15.5293 140.444 15.8486 141.264 15.8486C142.09 15.8486 142.747 15.5264 143.233 14.8818C143.719 14.2314 143.963 13.3232 143.963 12.1572C143.963 11.1143 143.714 10.2705 143.215 9.62598C142.723 8.97559 142.067 8.65039 141.247 8.65039C140.444 8.65039 139.797 8.96973 139.304 9.6084C138.812 10.2471 138.566 11.1611 138.566 12.3506ZM149.394 17H147.768V7.49023H149.394V17ZM147.636 4.96777C147.636 4.7041 147.715 4.48145 147.874 4.2998C148.038 4.11816 148.278 4.02734 148.594 4.02734C148.911 4.02734 149.151 4.11816 149.315 4.2998C149.479 4.48145 149.561 4.7041 149.561 4.96777C149.561 5.23145 149.479 5.45117 149.315 5.62695C149.151 5.80273 148.911 5.89062 148.594 5.89062C148.278 5.89062 148.038 5.80273 147.874 5.62695C147.715 5.45117 147.636 5.23145 147.636 4.96777ZM155.819 15.8486C156.399 15.8486 156.906 15.6729 157.339 15.3213C157.773 14.9697 158.013 14.5303 158.06 14.0029H159.598C159.569 14.5479 159.381 15.0664 159.036 15.5586C158.69 16.0508 158.227 16.4434 157.647 16.7363C157.073 17.0293 156.464 17.1758 155.819 17.1758C154.524 17.1758 153.493 16.7451 152.725 15.8838C151.964 15.0166 151.583 13.833 151.583 12.333V12.0605C151.583 11.1348 151.753 10.3115 152.092 9.59082C152.432 8.87012 152.919 8.31055 153.551 7.91211C154.19 7.51367 154.943 7.31445 155.81 7.31445C156.877 7.31445 157.761 7.63379 158.464 8.27246C159.173 8.91113 159.551 9.74023 159.598 10.7598H158.06C158.013 10.1445 157.779 9.64062 157.357 9.24805C156.941 8.84961 156.425 8.65039 155.81 8.65039C154.984 8.65039 154.342 8.94922 153.885 9.54688C153.434 10.1387 153.209 10.9971 153.209 12.1221V12.4297C153.209 13.5254 153.434 14.3691 153.885 14.9609C154.337 15.5527 154.981 15.8486 155.819 15.8486ZM165.373 17.1758C164.084 17.1758 163.035 16.7539 162.226 15.9102C161.418 15.0605 161.013 13.9268 161.013 12.5088V12.21C161.013 11.2666 161.192 10.4258 161.549 9.6875C161.913 8.94336 162.417 8.36328 163.061 7.94727C163.712 7.52539 164.415 7.31445 165.171 7.31445C166.407 7.31445 167.368 7.72168 168.053 8.53613C168.739 9.35059 169.082 10.5166 169.082 12.0342V12.7109H162.639C162.663 13.6484 162.935 14.4072 163.457 14.9873C163.984 15.5615 164.652 15.8486 165.461 15.8486C166.035 15.8486 166.521 15.7314 166.92 15.4971C167.318 15.2627 167.667 14.9521 167.965 14.5654L168.959 15.3389C168.162 16.5635 166.966 17.1758 165.373 17.1758ZM165.171 8.65039C164.514 8.65039 163.964 8.89062 163.518 9.37109C163.073 9.8457 162.797 10.5137 162.692 11.375H167.456V11.252C167.409 10.4258 167.186 9.78711 166.788 9.33594C166.389 8.87891 165.85 8.65039 165.171 8.65039ZM176.508 14.4775C176.508 14.0381 176.341 13.6982 176.007 13.458C175.679 13.2119 175.102 13.001 174.276 12.8252C173.456 12.6494 172.802 12.4385 172.316 12.1924C171.836 11.9463 171.478 11.6533 171.244 11.3135C171.015 10.9736 170.901 10.5693 170.901 10.1006C170.901 9.32129 171.229 8.66211 171.885 8.12305C172.547 7.58398 173.391 7.31445 174.417 7.31445C175.495 7.31445 176.368 7.59277 177.036 8.14941C177.71 8.70605 178.047 9.41797 178.047 10.2852H176.412C176.412 9.83984 176.221 9.45605 175.84 9.13379C175.465 8.81152 174.991 8.65039 174.417 8.65039C173.825 8.65039 173.362 8.7793 173.028 9.03711C172.694 9.29492 172.527 9.63184 172.527 10.0479C172.527 10.4404 172.682 10.7363 172.993 10.9355C173.303 11.1348 173.863 11.3252 174.672 11.5068C175.486 11.6885 176.145 11.9053 176.649 12.1572C177.153 12.4092 177.525 12.7139 177.765 13.0713C178.011 13.4229 178.134 13.8535 178.134 14.3633C178.134 15.2129 177.795 15.8955 177.115 16.4111C176.435 16.9209 175.553 17.1758 174.469 17.1758C173.708 17.1758 173.034 17.041 172.448 16.7715C171.862 16.502 171.402 16.127 171.068 15.6465C170.74 15.1602 170.576 14.6357 170.576 14.0732H172.202C172.231 14.6182 172.448 15.0518 172.852 15.374C173.262 15.6904 173.801 15.8486 174.469 15.8486C175.085 15.8486 175.577 15.7256 175.946 15.4795C176.321 15.2275 176.508 14.8936 176.508 14.4775Z" fill="#838383"/>
<path d="M43.0543 40.2031V48.9043C43.0485 50.1113 42.6676 51.0986 41.9117 51.8662C41.1617 52.6338 40.1422 53.0645 38.8531 53.1582L38.4049 53.1758C37.0045 53.1758 35.8883 52.7979 35.0563 52.042C34.2242 51.2861 33.8024 50.2461 33.7906 48.9219V40.2031H35.4606V48.8691C35.4606 49.7949 35.7155 50.5156 36.2252 51.0312C36.735 51.541 37.4615 51.7959 38.4049 51.7959C39.36 51.7959 40.0895 51.541 40.5934 51.0312C41.1031 50.5215 41.358 49.8037 41.358 48.8779V40.2031H43.0543ZM47.0006 43.4902L47.0533 44.6855C47.7799 43.7715 48.7291 43.3145 49.901 43.3145C51.9108 43.3145 52.9244 44.4482 52.942 46.7158V53H51.316V46.707C51.3102 46.0215 51.152 45.5146 50.8414 45.1865C50.5367 44.8584 50.0592 44.6943 49.4088 44.6943C48.8815 44.6943 48.4186 44.835 48.0201 45.1162C47.6217 45.3975 47.3112 45.7666 47.0885 46.2236V53H45.4625V43.4902H47.0006ZM57.1608 53H55.5348V39.5H57.1608V53ZM61.5377 53H59.9117V43.4902H61.5377V53ZM59.7799 40.9678C59.7799 40.7041 59.859 40.4814 60.0172 40.2998C60.1813 40.1182 60.4215 40.0273 60.7379 40.0273C61.0543 40.0273 61.2946 40.1182 61.4586 40.2998C61.6227 40.4814 61.7047 40.7041 61.7047 40.9678C61.7047 41.2314 61.6227 41.4512 61.4586 41.627C61.2946 41.8027 61.0543 41.8906 60.7379 41.8906C60.4215 41.8906 60.1813 41.8027 60.0172 41.627C59.859 41.4512 59.7799 41.2314 59.7799 40.9678ZM65.6774 43.4902L65.7213 44.5449C66.4186 43.7246 67.359 43.3145 68.5426 43.3145C69.8727 43.3145 70.778 43.8242 71.2584 44.8438C71.5748 44.3867 71.985 44.0176 72.4889 43.7363C72.9987 43.4551 73.5992 43.3145 74.2906 43.3145C76.3766 43.3145 77.4371 44.4189 77.4723 46.6279V53H75.8463V46.7246C75.8463 46.0449 75.691 45.5381 75.3805 45.2041C75.0699 44.8643 74.5485 44.6943 73.816 44.6943C73.2125 44.6943 72.7115 44.876 72.3131 45.2393C71.9147 45.5967 71.6832 46.0801 71.6188 46.6895V53H69.984V46.7686C69.984 45.3857 69.3073 44.6943 67.9537 44.6943C66.8873 44.6943 66.1578 45.1484 65.7653 46.0566V53H64.1393V43.4902H65.6774ZM81.6998 53H80.0739V43.4902H81.6998V53ZM79.942 40.9678C79.942 40.7041 80.0211 40.4814 80.1793 40.2998C80.3434 40.1182 80.5836 40.0273 80.9 40.0273C81.2164 40.0273 81.4567 40.1182 81.6207 40.2998C81.7848 40.4814 81.8668 40.7041 81.8668 40.9678C81.8668 41.2314 81.7848 41.4512 81.6207 41.627C81.4567 41.8027 81.2164 41.8906 80.9 41.8906C80.5836 41.8906 80.3434 41.8027 80.1793 41.627C80.0211 41.4512 79.942 41.2314 79.942 40.9678ZM86.5162 41.1875V43.4902H88.2916V44.7471H86.5162V50.6445C86.5162 51.0254 86.5953 51.3125 86.7535 51.5059C86.9117 51.6934 87.1813 51.7871 87.5621 51.7871C87.7496 51.7871 88.0074 51.752 88.3356 51.6816V53C87.9078 53.1172 87.4918 53.1758 87.0875 53.1758C86.361 53.1758 85.8131 52.9561 85.444 52.5166C85.0748 52.0771 84.8903 51.4531 84.8903 50.6445V44.7471H83.1588V43.4902H84.8903V41.1875H86.5162ZM94.1451 53.1758C92.8561 53.1758 91.8073 52.7539 90.9987 51.9102C90.1901 51.0605 89.7858 49.9268 89.7858 48.5088V48.21C89.7858 47.2666 89.9645 46.4258 90.3219 45.6875C90.6852 44.9434 91.1891 44.3633 91.8336 43.9473C92.484 43.5254 93.1871 43.3145 93.943 43.3145C95.1793 43.3145 96.1403 43.7217 96.8258 44.5361C97.5114 45.3506 97.8541 46.5166 97.8541 48.0342V48.7109H91.4117C91.4352 49.6484 91.7076 50.4072 92.2291 50.9873C92.7565 51.5615 93.4244 51.8486 94.233 51.8486C94.8073 51.8486 95.2936 51.7314 95.692 51.4971C96.0905 51.2627 96.4391 50.9521 96.7379 50.5654L97.7311 51.3389C96.9342 52.5635 95.7389 53.1758 94.1451 53.1758ZM93.943 44.6504C93.2867 44.6504 92.736 44.8906 92.2906 45.3711C91.8453 45.8457 91.5699 46.5137 91.4645 47.375H96.2281V47.252C96.1813 46.4258 95.9586 45.7871 95.5602 45.3359C95.1617 44.8789 94.6227 44.6504 93.943 44.6504ZM99.3483 48.166C99.3483 46.707 99.694 45.5352 100.385 44.6504C101.077 43.7598 101.982 43.3145 103.101 43.3145C104.214 43.3145 105.096 43.6953 105.747 44.457V39.5H107.373V53H105.879L105.799 51.9805C105.149 52.7773 104.244 53.1758 103.084 53.1758C101.982 53.1758 101.083 52.7246 100.385 51.8223C99.694 50.9199 99.3483 49.7422 99.3483 48.2891V48.166ZM100.974 48.3506C100.974 49.4287 101.197 50.2725 101.642 50.8818C102.088 51.4912 102.703 51.7959 103.488 51.7959C104.519 51.7959 105.272 51.333 105.747 50.4072V46.0391C105.26 45.1426 104.513 44.6943 103.505 44.6943C102.709 44.6943 102.088 45.002 101.642 45.6172C101.197 46.2324 100.974 47.1436 100.974 48.3506ZM116.32 51.6201H122.384V53H114.624V40.2031H116.32V51.6201ZM128.001 53.1758C126.712 53.1758 125.663 52.7539 124.854 51.9102C124.046 51.0605 123.641 49.9268 123.641 48.5088V48.21C123.641 47.2666 123.82 46.4258 124.177 45.6875C124.541 44.9434 125.045 44.3633 125.689 43.9473C126.339 43.5254 127.043 43.3145 127.798 43.3145C129.035 43.3145 129.996 43.7217 130.681 44.5361C131.367 45.3506 131.71 46.5166 131.71 48.0342V48.7109H125.267C125.291 49.6484 125.563 50.4072 126.085 50.9873C126.612 51.5615 127.28 51.8486 128.089 51.8486C128.663 51.8486 129.149 51.7314 129.547 51.4971C129.946 51.2627 130.295 50.9521 130.593 50.5654L131.587 51.3389C130.79 52.5635 129.594 53.1758 128.001 53.1758ZM127.798 44.6504C127.142 44.6504 126.591 44.8906 126.146 45.3711C125.701 45.8457 125.425 46.5137 125.32 47.375H130.084V47.252C130.037 46.4258 129.814 45.7871 129.416 45.3359C129.017 44.8789 128.478 44.6504 127.798 44.6504ZM139.47 53C139.377 52.8125 139.3 52.4785 139.242 51.998C138.486 52.7832 137.584 53.1758 136.535 53.1758C135.597 53.1758 134.827 52.9121 134.223 52.3848C133.626 51.8516 133.327 51.1777 133.327 50.3633C133.327 49.373 133.702 48.6055 134.452 48.0605C135.208 47.5098 136.268 47.2344 137.633 47.2344H139.215V46.4873C139.215 45.9189 139.046 45.4678 138.706 45.1338C138.366 44.7939 137.865 44.624 137.203 44.624C136.623 44.624 136.136 44.7705 135.744 45.0635C135.351 45.3564 135.155 45.7109 135.155 46.127H133.52C133.52 45.6523 133.687 45.1953 134.021 44.7559C134.361 44.3105 134.818 43.959 135.392 43.7012C135.972 43.4434 136.608 43.3145 137.299 43.3145C138.395 43.3145 139.254 43.5898 139.875 44.1406C140.496 44.6855 140.818 45.4385 140.841 46.3994V50.7764C140.841 51.6494 140.953 52.3438 141.175 52.8594V53H139.47ZM136.772 51.7607C137.282 51.7607 137.765 51.6289 138.222 51.3652C138.679 51.1016 139.01 50.7588 139.215 50.3369V48.3857H137.941C135.949 48.3857 134.953 48.9688 134.953 50.1348C134.953 50.6445 135.123 51.043 135.463 51.3301C135.802 51.6172 136.239 51.7607 136.772 51.7607ZM142.995 48.166C142.995 46.707 143.34 45.5352 144.032 44.6504C144.723 43.7598 145.629 43.3145 146.748 43.3145C147.861 43.3145 148.743 43.6953 149.393 44.457V39.5H151.019V53H149.525L149.446 51.9805C148.796 52.7773 147.89 53.1758 146.73 53.1758C145.629 53.1758 144.729 52.7246 144.032 51.8223C143.34 50.9199 142.995 49.7422 142.995 48.2891V48.166ZM144.621 48.3506C144.621 49.4287 144.843 50.2725 145.289 50.8818C145.734 51.4912 146.349 51.7959 147.134 51.7959C148.166 51.7959 148.919 51.333 149.393 50.4072V46.0391C148.907 45.1426 148.16 44.6943 147.152 44.6943C146.355 44.6943 145.734 45.002 145.289 45.6172C144.843 46.2324 144.621 47.1436 144.621 48.3506ZM159.088 50.4775C159.088 50.0381 158.921 49.6982 158.587 49.458C158.258 49.2119 157.681 49.001 156.855 48.8252C156.035 48.6494 155.381 48.4385 154.895 48.1924C154.415 47.9463 154.057 47.6533 153.823 47.3135C153.594 46.9736 153.48 46.5693 153.48 46.1006C153.48 45.3213 153.808 44.6621 154.464 44.123C155.127 43.584 155.97 43.3145 156.996 43.3145C158.074 43.3145 158.947 43.5928 159.615 44.1494C160.289 44.7061 160.626 45.418 160.626 46.2852H158.991C158.991 45.8398 158.8 45.4561 158.42 45.1338C158.045 44.8115 157.57 44.6504 156.996 44.6504C156.404 44.6504 155.941 44.7793 155.607 45.0371C155.273 45.2949 155.106 45.6318 155.106 46.0479C155.106 46.4404 155.261 46.7363 155.572 46.9355C155.882 47.1348 156.442 47.3252 157.251 47.5068C158.065 47.6885 158.724 47.9053 159.228 48.1572C159.732 48.4092 160.104 48.7139 160.344 49.0713C160.59 49.4229 160.714 49.8535 160.714 50.3633C160.714 51.2129 160.374 51.8955 159.694 52.4111C159.014 52.9209 158.132 53.1758 157.048 53.1758C156.287 53.1758 155.613 53.041 155.027 52.7715C154.441 52.502 153.981 52.127 153.647 51.6465C153.319 51.1602 153.155 50.6357 153.155 50.0732H154.781C154.81 50.6182 155.027 51.0518 155.431 51.374C155.841 51.6904 156.38 51.8486 157.048 51.8486C157.664 51.8486 158.156 51.7256 158.525 51.4795C158.9 51.2275 159.088 50.8936 159.088 50.4775Z" fill="#838383"/>
<path d="M40.8014 83.3486H35.4313V89H33.7438V76.2031H41.6715V77.5918H35.4313V81.9688H40.8014V83.3486ZM47.8063 80.9492C47.5602 80.9082 47.2936 80.8877 47.0065 80.8877C45.9401 80.8877 45.2164 81.3418 44.8356 82.25V89H43.2096V79.4902H44.7916L44.818 80.5889C45.3512 79.7393 46.1071 79.3145 47.0856 79.3145C47.402 79.3145 47.6422 79.3555 47.8063 79.4375V80.9492ZM53.0797 89.1758C51.7906 89.1758 50.7418 88.7539 49.9332 87.9102C49.1246 87.0605 48.7203 85.9268 48.7203 84.5088V84.21C48.7203 83.2666 48.899 82.4258 49.2565 81.6875C49.6198 80.9434 50.1237 80.3633 50.7682 79.9473C51.4186 79.5254 52.1217 79.3145 52.8776 79.3145C54.1139 79.3145 55.0748 79.7217 55.7604 80.5361C56.4459 81.3506 56.7887 82.5166 56.7887 84.0342V84.7109H50.3463C50.3698 85.6484 50.6422 86.4072 51.1637 86.9873C51.691 87.5615 52.359 87.8486 53.1676 87.8486C53.7418 87.8486 54.2281 87.7314 54.6266 87.4971C55.025 87.2627 55.3737 86.9521 55.6725 86.5654L56.6656 87.3389C55.8688 88.5635 54.6735 89.1758 53.0797 89.1758ZM52.8776 80.6504C52.2213 80.6504 51.6705 80.8906 51.2252 81.3711C50.7799 81.8457 50.5045 82.5137 50.399 83.375H55.1627V83.252C55.1158 82.4258 54.8932 81.7871 54.4948 81.3359C54.0963 80.8789 53.5573 80.6504 52.8776 80.6504ZM62.6246 89.1758C61.3356 89.1758 60.2867 88.7539 59.4781 87.9102C58.6696 87.0605 58.2653 85.9268 58.2653 84.5088V84.21C58.2653 83.2666 58.444 82.4258 58.8014 81.6875C59.1647 80.9434 59.6686 80.3633 60.3131 79.9473C60.9635 79.5254 61.6666 79.3145 62.4225 79.3145C63.6588 79.3145 64.6198 79.7217 65.3053 80.5361C65.9908 81.3506 66.3336 82.5166 66.3336 84.0342V84.7109H59.8912C59.9147 85.6484 60.1871 86.4072 60.7086 86.9873C61.236 87.5615 61.9039 87.8486 62.7125 87.8486C63.2867 87.8486 63.7731 87.7314 64.1715 87.4971C64.5699 87.2627 64.9186 86.9521 65.2174 86.5654L66.2106 87.3389C65.4137 88.5635 64.2184 89.1758 62.6246 89.1758ZM62.4225 80.6504C61.7662 80.6504 61.2155 80.8906 60.7701 81.3711C60.3248 81.8457 60.0494 82.5137 59.944 83.375H64.7076V83.252C64.6608 82.4258 64.4381 81.7871 64.0397 81.3359C63.6412 80.8789 63.1022 80.6504 62.4225 80.6504ZM81.9518 76.2031V84.9043C81.9459 86.1113 81.5651 87.0986 80.8092 87.8662C80.0592 88.6338 79.0397 89.0645 77.7506 89.1582L77.3024 89.1758C75.902 89.1758 74.7858 88.7979 73.9537 88.042C73.1217 87.2861 72.6998 86.2461 72.6881 84.9219V76.2031H74.358V84.8691C74.358 85.7949 74.6129 86.5156 75.1227 87.0312C75.6324 87.541 76.359 87.7959 77.3024 87.7959C78.2574 87.7959 78.9869 87.541 79.4908 87.0312C80.0006 86.5215 80.2555 85.8037 80.2555 84.8779V76.2031H81.9518ZM92.3932 84.3506C92.3932 85.7979 92.0621 86.9639 91.4 87.8486C90.7379 88.7334 89.8414 89.1758 88.7106 89.1758C87.5563 89.1758 86.6481 88.8096 85.986 88.0771V92.6562H84.36V79.4902H85.8453L85.9244 80.5449C86.5865 79.7246 87.5065 79.3145 88.6842 79.3145C89.8268 79.3145 90.7291 79.7451 91.3912 80.6064C92.0592 81.4678 92.3932 82.666 92.3932 84.2012V84.3506ZM90.7672 84.166C90.7672 83.0938 90.5387 82.2471 90.0817 81.626C89.6246 81.0049 88.9977 80.6943 88.2008 80.6943C87.2164 80.6943 86.4781 81.1309 85.986 82.0039V86.5479C86.4723 87.415 87.2164 87.8486 88.2184 87.8486C88.9977 87.8486 89.6158 87.541 90.0729 86.9258C90.5358 86.3047 90.7672 85.3848 90.7672 84.166ZM94.0719 84.166C94.0719 82.707 94.4176 81.5352 95.109 80.6504C95.8004 79.7598 96.7057 79.3145 97.8248 79.3145C98.9381 79.3145 99.8199 79.6953 100.47 80.457V75.5H102.096V89H100.602L100.523 87.9805C99.8727 88.7773 98.9674 89.1758 97.8073 89.1758C96.7057 89.1758 95.8063 88.7246 95.109 87.8223C94.4176 86.9199 94.0719 85.7422 94.0719 84.2891V84.166ZM95.6979 84.3506C95.6979 85.4287 95.9205 86.2725 96.3658 86.8818C96.8112 87.4912 97.4264 87.7959 98.2115 87.7959C99.2428 87.7959 99.9957 87.333 100.47 86.4072V82.0391C99.984 81.1426 99.2369 80.6943 98.2291 80.6943C97.4323 80.6943 96.8112 81.002 96.3658 81.6172C95.9205 82.2324 95.6979 83.1436 95.6979 84.3506ZM110.499 89C110.405 88.8125 110.329 88.4785 110.27 87.998C109.514 88.7832 108.612 89.1758 107.563 89.1758C106.626 89.1758 105.855 88.9121 105.252 88.3848C104.654 87.8516 104.355 87.1777 104.355 86.3633C104.355 85.373 104.73 84.6055 105.48 84.0605C106.236 83.5098 107.297 83.2344 108.662 83.2344H110.244V82.4873C110.244 81.9189 110.074 81.4678 109.734 81.1338C109.394 80.7939 108.893 80.624 108.231 80.624C107.651 80.624 107.165 80.7705 106.772 81.0635C106.38 81.3564 106.183 81.7109 106.183 82.127H104.548C104.548 81.6523 104.715 81.1953 105.049 80.7559C105.389 80.3105 105.846 79.959 106.421 79.7012C107.001 79.4434 107.636 79.3145 108.328 79.3145C109.423 79.3145 110.282 79.5898 110.903 80.1406C111.524 80.6855 111.846 81.4385 111.87 82.3994V86.7764C111.87 87.6494 111.981 88.3438 112.204 88.8594V89H110.499ZM107.8 87.7607C108.31 87.7607 108.794 87.6289 109.251 87.3652C109.708 87.1016 110.039 86.7588 110.244 86.3369V84.3857H108.969C106.977 84.3857 105.981 84.9688 105.981 86.1348C105.981 86.6445 106.151 87.043 106.491 87.3301C106.831 87.6172 107.267 87.7607 107.8 87.7607ZM116.625 77.1875V79.4902H118.4V80.7471H116.625V86.6445C116.625 87.0254 116.704 87.3125 116.862 87.5059C117.02 87.6934 117.29 87.7871 117.671 87.7871C117.858 87.7871 118.116 87.752 118.444 87.6816V89C118.016 89.1172 117.6 89.1758 117.196 89.1758C116.469 89.1758 115.922 88.9561 115.552 88.5166C115.183 88.0771 114.999 87.4531 114.999 86.6445V80.7471H113.267V79.4902H114.999V77.1875H116.625ZM124.254 89.1758C122.964 89.1758 121.916 88.7539 121.107 87.9102C120.298 87.0605 119.894 85.9268 119.894 84.5088V84.21C119.894 83.2666 120.073 82.4258 120.43 81.6875C120.794 80.9434 121.297 80.3633 121.942 79.9473C122.592 79.5254 123.296 79.3145 124.051 79.3145C125.288 79.3145 126.249 79.7217 126.934 80.5361C127.62 81.3506 127.963 82.5166 127.963 84.0342V84.7109H121.52C121.544 85.6484 121.816 86.4072 122.338 86.9873C122.865 87.5615 123.533 87.8486 124.341 87.8486C124.916 87.8486 125.402 87.7314 125.8 87.4971C126.199 87.2627 126.547 86.9521 126.846 86.5654L127.839 87.3389C127.043 88.5635 125.847 89.1758 124.254 89.1758ZM124.051 80.6504C123.395 80.6504 122.844 80.8906 122.399 81.3711C121.954 81.8457 121.678 82.5137 121.573 83.375H126.337V83.252C126.29 82.4258 126.067 81.7871 125.669 81.3359C125.27 80.8789 124.731 80.6504 124.051 80.6504ZM135.389 86.4775C135.389 86.0381 135.222 85.6982 134.888 85.458C134.56 85.2119 133.983 85.001 133.157 84.8252C132.337 84.6494 131.683 84.4385 131.197 84.1924C130.716 83.9463 130.359 83.6533 130.125 83.3135C129.896 82.9736 129.782 82.5693 129.782 82.1006C129.782 81.3213 130.11 80.6621 130.766 80.123C131.428 79.584 132.272 79.3145 133.297 79.3145C134.376 79.3145 135.249 79.5928 135.917 80.1494C136.59 80.7061 136.927 81.418 136.927 82.2852H135.293C135.293 81.8398 135.102 81.4561 134.721 81.1338C134.346 80.8115 133.872 80.6504 133.297 80.6504C132.706 80.6504 132.243 80.7793 131.909 81.0371C131.575 81.2949 131.408 81.6318 131.408 82.0479C131.408 82.4404 131.563 82.7363 131.874 82.9355C132.184 83.1348 132.744 83.3252 133.552 83.5068C134.367 83.6885 135.026 83.9053 135.53 84.1572C136.034 84.4092 136.406 84.7139 136.646 85.0713C136.892 85.4229 137.015 85.8535 137.015 86.3633C137.015 87.2129 136.675 87.8955 135.996 88.4111C135.316 88.9209 134.434 89.1758 133.35 89.1758C132.589 89.1758 131.915 89.041 131.329 88.7715C130.743 88.502 130.283 88.127 129.949 87.6465C129.621 87.1602 129.457 86.6357 129.457 86.0732H131.083C131.112 86.6182 131.329 87.0518 131.733 87.374C132.143 87.6904 132.682 87.8486 133.35 87.8486C133.965 87.8486 134.458 87.7256 134.827 87.4795C135.202 87.2275 135.389 86.8936 135.389 86.4775Z" fill="#838383"/>
<path d="M1.21096 9.32993L5.66191 14.2028L14.0154 6.57257" stroke="#489F9F" stroke-width="3" stroke-linejoin="round"/>
<path d="M1.21096 45.3299L5.66191 50.2028L14.0154 42.5726" stroke="#489F9F" stroke-width="3" stroke-linejoin="round"/>
<path d="M1.21096 81.3299L5.66191 86.2028L14.0154 78.5726" stroke="#489F9F" stroke-width="3" stroke-linejoin="round"/>
</svg>
