<svg width="75" height="85" viewBox="0 0 75 85" fill="none" xmlns="http://www.w3.org/2000/svg">
<path d="M65.6034 63.0658L39.6974 78.022V58.7206L38.8705 59.134C38.3023 59.3474 37.7128 59.4568 37.1447 59.4568C36.5845 59.4568 36.0137 59.3501 35.4402 59.142L35.3015 59.1233L34.8534 58.9153L34.5893 58.7819V78.022L8.68332 63.0658V45.7382L3.57788 43.1695V64.5409C3.57788 65.4531 4.06602 66.296 4.85558 66.7495L35.867 84.6585C36.2591 84.8853 36.7019 85 37.1447 85C37.5875 85 38.0276 84.8879 38.4224 84.6585L69.4311 66.7495C70.2234 66.296 70.7088 65.4531 70.7088 64.5409V43.1642L65.6034 45.7222V63.0658Z" fill="#489F9F"/>
<path d="M38.9878 11.8941L37.9369 11.55C37.4221 11.3819 36.8619 11.3819 36.3418 11.55L35.2935 11.8941C35.9763 13.4625 36.5952 15.0336 37.1366 16.5274C37.6835 15.0336 38.3076 13.4625 38.9878 11.8941Z" fill="#489F9F"/>
<path d="M74.2743 25.2738C74.2743 25.2578 74.2796 25.2418 74.2796 25.2231C74.277 25.1698 74.253 25.1191 74.2476 25.0658C74.2289 24.895 74.1969 24.727 74.1463 24.5643C74.1196 24.4843 74.0902 24.4096 74.0582 24.3349C73.9969 24.1908 73.9222 24.0575 73.8368 23.9294C73.7862 23.8601 73.7461 23.7907 73.6901 23.7267C73.5888 23.6013 73.4714 23.4946 73.3434 23.3879C73.2873 23.3399 73.234 23.2839 73.1726 23.2412C73.1566 23.2332 73.1486 23.2172 73.1326 23.2066C72.9486 23.0839 72.7485 22.9905 72.5405 22.9211C72.5351 22.9211 72.5298 22.9158 72.5245 22.9131L66.1067 20.8032C65.8106 21.1313 65.5118 21.4434 65.2317 21.7261C62.2976 24.6603 57.3468 27.1037 52.7536 28.9202L58.2191 31.1395V43.7297L50.6436 47.5494V34.3964L41.9692 29.8111C44.2098 29.2083 58.0244 25.3245 63.4232 19.9203C65.0023 18.3465 67.0803 15.9058 66.9442 12.897C66.8109 9.89613 64.7143 8.1383 63.0285 6.72723C62.5457 6.32445 62.0335 5.89767 61.54 5.4122C61.0519 4.92406 60.6278 4.40925 60.2223 3.92378C58.8353 2.26997 56.9441 0.00266742 53.7778 0.00266742C50.8864 0.00266742 48.5417 2.0139 47.0319 3.52633C41.6197 8.93853 37.7387 22.7771 37.1385 24.9964C36.541 22.7851 32.6572 8.93853 27.2424 3.52633C25.7326 2.01124 23.3879 0 20.4991 0C17.3329 0 15.439 2.26731 14.052 3.92111C13.6492 4.40391 13.2251 4.91872 12.7369 5.40686C12.2488 5.895 11.7313 6.31912 11.2512 6.72457C9.5627 8.1383 7.46611 9.89346 7.33274 12.897C7.19936 15.9032 9.27729 18.3465 10.8537 19.9203C16.2553 25.3272 30.0858 29.2109 32.3158 29.8111L23.636 34.3964V47.5494L16.0605 43.7297V31.1395L21.5314 28.9175C16.9328 27.0983 11.9767 24.655 9.04789 21.7235C8.76781 21.4434 8.47172 21.1286 8.17297 20.8005L1.75783 22.9105C1.75249 22.9105 1.74716 22.9158 1.74182 22.9158C1.5391 22.9852 1.33904 23.0812 1.14966 23.2039C1.13365 23.2119 1.12565 23.2279 1.10965 23.2386C1.04563 23.2839 0.994947 23.3373 0.936264 23.3853C0.810895 23.492 0.693529 23.5987 0.592167 23.7214C0.536151 23.7854 0.493473 23.8547 0.445459 23.9268C0.360102 24.0548 0.285414 24.1908 0.224063 24.3322C0.192054 24.4096 0.160045 24.4843 0.136038 24.5643C0.0826897 24.727 0.0533482 24.8924 0.0373437 25.0658C0.0293415 25.1191 0.00533465 25.1671 0.00266723 25.2231C0.00266723 25.2391 0.00800231 25.2551 0.00800231 25.2738C0.00800231 25.2952 0 25.3165 0 25.3378V36.9358C0 37.9014 0.544154 38.7816 1.40306 39.2138L35.9888 56.6293C36.0262 56.648 36.0635 56.64 36.1035 56.656C36.4316 56.8027 36.781 56.9014 37.1385 56.9014C37.4959 56.9014 37.8453 56.8027 38.1734 56.656C38.2161 56.64 38.2508 56.648 38.2881 56.6293L72.8766 39.2138C73.7328 38.779 74.277 37.8987 74.277 36.9358V25.3378C74.2823 25.3192 74.2743 25.2952 74.2743 25.2738ZM49.7447 6.23643C54.7274 1.25369 55.8077 5.08677 58.8433 8.11963C61.8735 11.1525 65.7039 12.2328 60.7211 17.2155C55.7411 22.1983 40.7955 26.1647 40.7955 26.1647C40.7955 26.1647 44.7593 11.2192 49.7447 6.23643ZM15.4444 8.11696C18.4772 5.08677 19.5575 1.25369 24.5403 6.23643C29.5257 11.2218 33.4895 26.1647 33.4895 26.1647C33.4895 26.1647 18.5439 22.2009 13.5612 17.2182C8.57842 12.2355 12.4142 11.1525 15.4444 8.11696Z" fill="#489F9F"/>
</svg>
