<svg width="136" height="21" viewBox="0 0 136 21" fill="none" xmlns="http://www.w3.org/2000/svg">
<path d="M132.139 13.7147L136 15.2235L134.491 19.0841L130.63 17.5753L132.139 13.7147Z" fill="#FBBB00"/>
<path d="M15.2167 10.217C16.3399 10.6336 17.2094 11.2405 17.8253 12.0375C18.4412 12.8346 18.7492 13.7947 18.7492 14.9178C18.7492 16.5844 18.0608 17.8797 16.6841 18.8035C15.3073 19.7093 13.3146 20.1622 10.7061 20.1622H0V1.14126H10.1626C12.6987 1.14126 14.6099 1.59413 15.896 2.49989C17.2003 3.40565 17.8525 4.61031 17.8525 6.11387C17.8525 7.00151 17.626 7.79858 17.1732 8.50507C16.7384 9.21156 16.0863 9.78219 15.2167 10.217ZM6.30407 5.62476V8.45073H9.29307C10.6879 8.45073 11.3854 7.97973 11.3854 7.03774C11.3854 6.09575 10.6879 5.62476 9.29307 5.62476H6.30407ZM10.1626 15.6787C11.5756 15.6787 12.2821 15.1805 12.2821 14.1842C12.2821 13.1878 11.5756 12.6897 10.1626 12.6897H6.30407V15.6787H10.1626Z" fill="#245D5D"/>
<path d="M37.0755 5.29869V20.1622H31.2334V18.7492C30.6899 19.3108 30.0559 19.7365 29.3313 20.0263C28.6067 20.298 27.8368 20.4339 27.0216 20.4339C25.1376 20.4339 23.625 19.8633 22.4837 18.722C21.3425 17.5627 20.7719 15.8236 20.7719 13.5049V5.29869H26.9129V12.4451C26.9129 13.4596 27.0759 14.1842 27.402 14.6189C27.7281 15.0537 28.2081 15.2711 28.8422 15.2711C29.44 15.2711 29.9381 15.0356 30.3367 14.5646C30.7352 14.0755 30.9345 13.3146 30.9345 12.2821V5.29869H37.0755Z" fill="#245D5D"/>
<path d="M50.125 5.02696C51.9546 5.02696 53.4219 5.57947 54.527 6.6845C55.6501 7.78952 56.2117 9.45612 56.2117 11.6843V20.1622H50.0706V12.744C50.0706 11.0412 49.4638 10.1898 48.2501 10.1898C47.5617 10.1898 47.0001 10.4343 46.5654 10.9234C46.1487 11.3944 45.9404 12.1462 45.9404 13.1788V20.1622H39.7993V5.29869H45.6415V6.76601C46.2212 6.18633 46.8914 5.75156 47.6523 5.46172C48.4131 5.17188 49.2373 5.02696 50.125 5.02696Z" fill="#245D5D"/>
<path d="M75.5835 0V20.1622H69.7414V18.9394C68.8537 19.9357 67.4951 20.4339 65.6655 20.4339C64.3612 20.4339 63.1565 20.1259 62.0515 19.51C60.9646 18.876 60.095 17.9702 59.4429 16.7928C58.8089 15.6153 58.4919 14.2566 58.4919 12.7168C58.4919 11.1771 58.8089 9.82748 59.4429 8.66811C60.095 7.49062 60.9646 6.59392 62.0515 5.97801C63.1565 5.34397 64.3612 5.02696 65.6655 5.02696C67.3139 5.02696 68.5729 5.45266 69.4425 6.30408V0H75.5835ZM67.1328 15.6515C67.8393 15.6515 68.419 15.3979 68.8718 14.8907C69.3247 14.3653 69.5511 13.6407 69.5511 12.7168C69.5511 11.793 69.3247 11.0774 68.8718 10.5702C68.419 10.063 67.8393 9.80936 67.1328 9.80936C66.4263 9.80936 65.8466 10.063 65.3937 10.5702C64.9408 11.0774 64.7144 11.793 64.7144 12.7168C64.7144 13.6407 64.9408 14.3653 65.3937 14.8907C65.8466 15.3979 66.4263 15.6515 67.1328 15.6515Z" fill="#245D5D"/>
<path d="M84.9602 5.02696C87.5688 5.02696 89.5615 5.6157 90.9382 6.79319C92.315 7.95256 93.0033 9.74596 93.0033 12.1734V20.1622H87.2971V18.2057C86.5906 19.6912 85.1867 20.4339 83.0853 20.4339C81.9078 20.4339 80.9024 20.2346 80.0691 19.8361C79.2539 19.4195 78.629 18.8669 78.1942 18.1786C77.7776 17.4721 77.5692 16.6841 77.5692 15.8145C77.5692 14.3472 78.1308 13.2331 79.2539 12.4723C80.3771 11.7115 82.0799 11.331 84.3624 11.331H86.8351C86.6359 10.1717 85.7029 9.59198 84.0363 9.59198C83.3661 9.59198 82.6868 9.70067 81.9984 9.91805C81.31 10.1173 80.7213 10.3981 80.2322 10.7604L78.2757 6.71167C79.1271 6.18633 80.1506 5.77874 81.3462 5.4889C82.56 5.18094 83.7646 5.02696 84.9602 5.02696ZM84.933 16.7384C85.3678 16.7384 85.7573 16.6207 86.1015 16.3852C86.4457 16.1497 86.6993 15.7964 86.8623 15.3254V14.2929H85.3406C84.0907 14.2929 83.4657 14.7095 83.4657 15.5428C83.4657 15.887 83.5925 16.1768 83.8461 16.4123C84.1179 16.6297 84.4802 16.7384 84.933 16.7384Z" fill="#245D5D"/>
<path d="M105.983 5.02696C107.813 5.02696 109.28 5.57947 110.385 6.6845C111.508 7.78952 112.07 9.45612 112.07 11.6843V20.1622H105.929V12.744C105.929 11.0412 105.322 10.1898 104.108 10.1898C103.42 10.1898 102.858 10.4343 102.423 10.9234C102.007 11.3944 101.798 12.1462 101.798 13.1788V20.1622H95.6574V5.29869H101.499V6.76601C102.079 6.18633 102.749 5.75156 103.51 5.46172C104.271 5.17188 105.095 5.02696 105.983 5.02696Z" fill="#245D5D"/>
<path d="M120.552 20.4339C119.284 20.4339 118.034 20.298 116.802 20.0263C115.57 19.7546 114.574 19.4013 113.813 18.9666L115.497 14.9178C116.186 15.3345 117.001 15.6606 117.943 15.8961C118.885 16.1316 119.8 16.2493 120.687 16.2493C121.394 16.2493 121.883 16.195 122.155 16.0863C122.445 15.9595 122.59 15.7783 122.59 15.5428C122.59 15.3073 122.408 15.1443 122.046 15.0537C121.702 14.9631 121.131 14.8726 120.334 14.782C119.121 14.6371 118.088 14.4559 117.237 14.2385C116.385 14.003 115.633 13.5592 114.981 12.9071C114.347 12.2549 114.03 11.322 114.03 10.1083C114.03 9.14816 114.32 8.28769 114.9 7.52685C115.479 6.76602 116.34 6.15916 117.481 5.70628C118.64 5.2534 120.026 5.02696 121.639 5.02696C122.762 5.02696 123.858 5.13565 124.926 5.35303C126.013 5.5523 126.937 5.8512 127.698 6.24973L126.013 10.2985C124.709 9.57387 123.278 9.21156 121.72 9.21156C120.38 9.21156 119.709 9.44706 119.709 9.91805C119.709 10.1536 119.89 10.3256 120.253 10.4343C120.615 10.5249 121.186 10.6155 121.965 10.7061C123.178 10.851 124.202 11.0412 125.035 11.2767C125.887 11.5122 126.629 11.956 127.263 12.6082C127.915 13.2603 128.242 14.1932 128.242 15.4069C128.242 16.3308 127.952 17.1732 127.372 17.934C126.792 18.6949 125.923 19.3017 124.763 19.7546C123.604 20.2075 122.2 20.4339 120.552 20.4339Z" fill="#245D5D"/>
</svg>
